<?xml version="1.0" encoding="utf-8"?>
<!-- Generator: Adobe Illustrator 19.2.1, SVG Export Plug-In . SVG Version: 6.00 Build 0)  -->
<svg version="1.1" id="Calque_1" xmlns="http://www.w3.org/2000/svg" xmlns:xlink="http://www.w3.org/1999/xlink" x="0px" y="0px"
	 viewBox="0 0 120 22" style="enable-background:new 0 0 120 22;" xml:space="preserve">
<style type="text/css">
	.st0{fill:#FFFFFF;}
	.st1{fill:#0095FF;}
</style>
<path class="st0" d="M15.6,19l-1-2l-1,2H15.6z M16.4,20.7l-0.6-1.3h-2.4l-0.6,1.3H12l2.2-4.7H15l2.2,4.7H16.4z M21,20.8
	c-0.4,0-0.7-0.1-0.9-0.3c-0.2-0.2-0.3-0.4-0.3-0.8v-2h-0.5v-0.5h0.5v-0.6l0.8-0.1v0.7h1.1v0.5h-1.1v1.9c0,0.5,0.2,0.7,0.7,0.7h0.4
	v0.4C21.4,20.8,21.2,20.8,21,20.8 M25.9,20.8c-0.4,0-0.7-0.1-0.9-0.3c-0.2-0.2-0.3-0.4-0.3-0.8v-2h-0.5v-0.5h0.5v-0.6l0.8-0.1v0.7
	h1.1v0.5h-1.1v1.9c0,0.5,0.2,0.7,0.7,0.7h0.4v0.4C26.2,20.8,26,20.8,25.9,20.8 M31.4,20v-0.9h-0.3c-0.4,0-0.7,0.1-1,0.2
	s-0.4,0.3-0.4,0.5c0,0.1,0.1,0.3,0.2,0.4s0.3,0.2,0.5,0.2C30.7,20.3,31.1,20.2,31.4,20 M31.5,20.3c-0.5,0.3-0.9,0.5-1.3,0.5
	c-0.3,0-0.6-0.1-0.9-0.3c-0.2-0.2-0.3-0.4-0.3-0.7c0-0.4,0.2-0.7,0.6-0.9c0.4-0.2,0.9-0.3,1.6-0.3h0.2v-0.4c0-0.4-0.2-0.6-0.7-0.6
	c-0.4,0-0.8,0.1-1.3,0.3v-0.5c0.5-0.2,1-0.3,1.4-0.3c0.5,0,0.8,0.1,1,0.3c0.2,0.2,0.3,0.4,0.3,0.8v1.6c0,0.4,0.1,0.5,0.4,0.5h0.1
	l0.1,0.3c-0.2,0.1-0.4,0.1-0.6,0.1C31.8,20.8,31.6,20.7,31.5,20.3 M37,20.8c-0.6,0-1-0.2-1.4-0.5S35,19.5,35,19c0-0.6,0.2-1,0.5-1.3
	c0.4-0.3,0.9-0.5,1.5-0.5c0.3,0,0.7,0,1.1,0.1v0.5c-0.4-0.1-0.8-0.2-1-0.2c-0.4,0-0.7,0.1-0.9,0.4c-0.2,0.2-0.3,0.6-0.3,1
	s0.1,0.7,0.4,0.9c0.2,0.2,0.6,0.4,0.9,0.4c0.3,0,0.7-0.1,1.1-0.2v0.5C37.8,20.8,37.4,20.8,37,20.8"/>
<path class="st0" d="M41.1,20.7v-5h0.8V18c0.4-0.5,0.9-0.7,1.5-0.7c0.4,0,0.6,0.1,0.9,0.3c0.2,0.2,0.3,0.4,0.3,0.8v2.5h-0.8v-2.3
	c0-0.3,0-0.4-0.1-0.5s-0.2-0.2-0.4-0.2c-0.5,0-0.9,0.3-1.3,0.8v2.2h-0.9V20.7z M48.5,16.7l0.9-1h0.9l-1.2,1
	C49.1,16.7,48.5,16.7,48.5,16.7z M48.1,18.7H50c0-0.6-0.3-1-0.9-1C48.5,17.7,48.2,18,48.1,18.7 M50.7,20.6c-0.5,0.1-0.9,0.2-1.3,0.2
	c-0.6,0-1.1-0.2-1.5-0.5s-0.6-0.8-0.6-1.3s0.2-1,0.5-1.3s0.8-0.5,1.3-0.5s0.9,0.1,1.2,0.4s0.4,0.7,0.4,1.3v0.2h-2.6
	c0.1,0.8,0.6,1.2,1.4,1.2c0.3,0,0.7-0.1,1.2-0.2C50.7,20.1,50.7,20.6,50.7,20.6z"/>
<path class="st1" d="M60.3,18.1c-0.4-0.3-0.8-0.4-1.1-0.4c-0.7,0-1.1,0.5-1.1,1.4c0,0.8,0.3,1.2,1,1.2c0.4,0,0.8-0.2,1.2-0.6
	C60.3,19.7,60.3,18.1,60.3,18.1z M60.3,20.7v-0.6c-0.3,0.5-0.8,0.7-1.4,0.7c-0.5,0-0.9-0.2-1.2-0.5s-0.4-0.7-0.4-1.2
	c0-0.6,0.2-1,0.5-1.4c0.3-0.3,0.8-0.5,1.3-0.5s0.9,0.2,1.2,0.5v-2h0.8v5C61.1,20.7,60.3,20.7,60.3,20.7z M64.8,18.7h1.8
	c0-0.6-0.3-1-0.9-1C65.2,17.7,64.9,18,64.8,18.7 M67.4,20.6c-0.5,0.1-0.9,0.2-1.3,0.2c-0.6,0-1.1-0.2-1.5-0.5S64,19.5,64,19
	s0.2-1,0.5-1.3s0.8-0.5,1.3-0.5s0.9,0.1,1.2,0.4c0.3,0.3,0.4,0.7,0.4,1.3v0.2h-2.6c0.1,0.8,0.6,1.2,1.4,1.2c0.3,0,0.7-0.1,1.2-0.2
	C67.4,20.1,67.4,20.6,67.4,20.6z"/>
<path class="st0" d="M75.1,19.9c0.4,0.3,0.8,0.4,1.1,0.4c0.7,0,1.1-0.5,1.1-1.4c0-0.8-0.3-1.2-1-1.2c-0.4,0-0.8,0.2-1.2,0.6V19.9z
	 M74.3,22v-4.7h0.8V18c0.3-0.5,0.8-0.7,1.4-0.7c0.5,0,0.9,0.2,1.2,0.5c0.3,0.3,0.4,0.7,0.4,1.2c0,0.6-0.2,1-0.5,1.4
	c-0.3,0.3-0.8,0.5-1.3,0.5s-0.9-0.2-1.2-0.5V22H74.3z M81,20.7v-3.4h0.8V18c0.3-0.5,0.7-0.7,1.3-0.7h0.2v0.6L83,17.8
	c-0.5,0-0.9,0.2-1.2,0.7v2.3H81V20.7z M86.4,18.7h1.8c0-0.6-0.3-1-0.9-1C86.8,17.7,86.5,18,86.4,18.7 M89,20.6
	c-0.5,0.1-0.9,0.2-1.3,0.2c-0.6,0-1.1-0.2-1.5-0.5s-0.6-0.8-0.6-1.3s0.2-1,0.5-1.3s0.8-0.5,1.3-0.5s0.9,0.1,1.2,0.4
	c0.3,0.3,0.4,0.7,0.4,1.3v0.2h-2.6c0.1,0.8,0.6,1.2,1.4,1.2c0.3,0,0.7-0.1,1.2-0.2C89,20.1,89,20.6,89,20.6z M93.1,20.8
	c-0.3,0-0.8-0.1-1.3-0.2V20c0.5,0.2,0.9,0.3,1.3,0.3c0.2,0,0.4,0,0.5-0.1s0.2-0.2,0.2-0.4s-0.2-0.4-0.6-0.5l-0.4-0.2
	c-0.6-0.2-1-0.5-1-1c0-0.3,0.1-0.5,0.4-0.7s0.6-0.3,1.1-0.3c0.2,0,0.5,0,0.9,0.1h0.2v0.5c-0.4-0.1-0.8-0.2-1-0.2
	c-0.5,0-0.7,0.1-0.7,0.4c0,0.2,0.2,0.3,0.6,0.5l0.4,0.1c0.4,0.1,0.7,0.3,0.9,0.5c0.2,0.2,0.3,0.4,0.3,0.6c0,0.3-0.1,0.6-0.4,0.7
	C93.9,20.7,93.5,20.8,93.1,20.8 M98.7,20.8c-0.3,0-0.8-0.1-1.3-0.2V20c0.5,0.2,0.9,0.3,1.3,0.3c0.2,0,0.4,0,0.5-0.1s0.2-0.2,0.2-0.4
	s-0.2-0.4-0.6-0.5l-0.4-0.2c-0.6-0.2-1-0.5-1-1c0-0.3,0.1-0.5,0.4-0.7s0.6-0.3,1.1-0.3c0.2,0,0.5,0,0.9,0.1h0.2v0.5
	c-0.4-0.1-0.8-0.2-1-0.2c-0.5,0-0.7,0.1-0.7,0.4c0,0.2,0.2,0.3,0.6,0.5l0.4,0.1c0.4,0.1,0.7,0.3,0.9,0.5c0.2,0.2,0.3,0.4,0.3,0.6
	c0,0.3-0.1,0.6-0.4,0.7C99.5,20.7,99.1,20.8,98.7,20.8"/>
<path class="st0" d="M103.7,18.7h1.8c0-0.6-0.3-1-0.9-1C104.1,17.7,103.8,18,103.7,18.7 M106.3,20.6c-0.5,0.1-0.9,0.2-1.3,0.2
	c-0.6,0-1.1-0.2-1.5-0.5s-0.6-0.8-0.6-1.3s0.2-1,0.5-1.3s0.8-0.5,1.3-0.5s0.9,0.1,1.2,0.4c0.3,0.3,0.4,0.7,0.4,1.3v0.2h-2.6
	c0.1,0.8,0.6,1.2,1.4,1.2c0.3,0,0.7-0.1,1.2-0.2C106.3,20.1,106.3,20.6,106.3,20.6z M1.8,6h0.7C3.6,6,4.4,5.8,5,5.4
	c0.7-0.4,1-1,1-1.8C6,3,5.8,2.5,5.3,2.3C4.8,2,4,1.9,2.9,1.9H1.8C1.8,1.9,1.8,6,1.8,6z M0,11.5V0.7h3.5c1.6,0,2.7,0.2,3.4,0.7
	c0.7,0.4,1,1.2,1,2.2c0,1.1-0.5,2-1.4,2.7c-0.9,0.6-2.2,1-3.9,1H1.8v4.3H0V11.5z M14.6,9.7v-2H14c-0.9,0-1.7,0.1-2.3,0.4
	c-0.6,0.3-0.9,0.7-0.9,1.2c0,0.3,0.1,0.6,0.4,0.9c0.3,0.2,0.6,0.4,1.1,0.4C13.1,10.5,13.8,10.2,14.6,9.7 M14.9,10.5
	c-1,0.8-2,1.2-3,1.2c-0.8,0-1.4-0.2-2-0.6c-0.5-0.4-0.8-0.9-0.8-1.5c0-0.9,0.4-1.5,1.3-2s2.1-0.7,3.8-0.7h0.4v-1
	c0-0.9-0.6-1.4-1.7-1.4C12,4.5,11,4.7,10,5.2V4c1.2-0.4,2.2-0.6,3.3-0.6s1.8,0.2,2.3,0.6c0.5,0.4,0.8,1,0.8,1.9v3.6
	c0,0.8,0.3,1.2,0.9,1.2h0.3l0.1,0.8c-0.4,0.2-0.8,0.2-1.3,0.2C15.6,11.6,15.1,11.2,14.9,10.5 M22.7,11.6c-0.9,0-1.6-0.2-2-0.6
	c-0.5-0.4-0.7-1-0.7-1.7V4.7h-1.2V3.6H20V2.1L21.7,2v1.6h2.5v1.1h-2.5V9c0,1,0.5,1.5,1.6,1.5c0.2,0,0.5,0,0.8-0.1v1
	C23.6,11.6,23.1,11.6,22.7,11.6"/>
<path class="st0" d="M26.6,11.5V3.6h1.7v1.5C29,4,30,3.4,31.3,3.4h0.6v1.3c-0.3-0.1-0.6-0.1-0.8-0.1c-1.1,0-2,0.5-2.7,1.6v5.2h-1.8
	L26.6,11.5z M33.9,3.6h1.7v7.9h-1.7V3.6z M33.9,0.7h1.7v1.4h-1.7C33.9,2.1,33.9,0.7,33.9,0.7z M42.8,11.6c-1.3,0-2.3-0.4-3.2-1.2
	c-0.8-0.8-1.3-1.8-1.3-3c0-1.3,0.4-2.3,1.3-3c0.8-0.7,2-1.1,3.5-1.1c0.7,0,1.6,0.1,2.5,0.3v1.2c-1-0.2-1.8-0.4-2.4-0.4
	c-0.9,0-1.6,0.3-2.1,0.8s-0.8,1.3-0.8,2.2s0.3,1.6,0.8,2.1s1.3,0.8,2.2,0.8c0.8,0,1.6-0.2,2.4-0.5V11C44.6,11.5,43.6,11.6,42.8,11.6
	"/>
<path class="st0" d="M48.3,11.5V0H50v7.4l4-3.8h1.9L52,7.3l4.7,4.2h-2.2L50,7.4v4.1H48.3z"/>
<path class="st1" d="M62.2,11.5V0.7h2.5L68.3,9L72,0.7h2.3v10.8h-1.7V2.7l-3.6,8h-1.8l-3.4-8v8.8H62.2z M82.9,10.6
	c1.3,0,2.3-0.4,3.1-1.2c0.7-0.8,1-1.9,1-3.3s-0.4-2.5-1.1-3.3s-1.7-1.2-3-1.2s-2.3,0.4-3,1.2s-1.1,1.9-1.1,3.3s0.4,2.5,1.1,3.3
	S81.6,10.6,82.9,10.6 M82.9,11.7c-1.8,0-3.2-0.5-4.3-1.5c-1.1-1-1.6-2.4-1.6-4.1S77.6,3,78.6,2c1.1-1,2.6-1.5,4.4-1.5S86.3,1,87.4,2
	c1,1,1.6,2.4,1.6,4.1s-0.6,3.1-1.7,4.1S84.7,11.7,82.9,11.7"/>
<path class="st1" d="M94.4,11.5V7L90,0.7h2.1l3.4,4.9l3.6-4.9h1.7l-4.6,6.2v4.6H94.4z M105.3,11.7c-0.9,0-2-0.2-3.3-0.5V9.7
	c1.5,0.6,2.7,0.8,3.6,0.8c0.7,0,1.3-0.2,1.7-0.5c0.4-0.3,0.7-0.7,0.7-1.2c0-0.4-0.1-0.8-0.4-1.1c-0.3-0.3-0.8-0.6-1.6-1l-1-0.3
	c-1.1-0.5-1.9-1-2.3-1.5c-0.5-0.5-0.7-1-0.7-1.6c0-0.8,0.4-1.5,1.1-2s1.6-0.8,2.8-0.8c1,0,2.1,0.1,3.2,0.4v1.4
	c-1.4-0.4-2.4-0.7-3.1-0.7c-0.6,0-1.2,0.1-1.6,0.4s-0.6,0.6-0.6,1.1c0,0.4,0.2,0.7,0.5,1s0.9,0.6,1.7,1l0.9,0.4
	c1.1,0.5,1.9,1,2.3,1.5s0.7,1,0.7,1.7c0,0.9-0.4,1.7-1.2,2.2C107.7,11.4,106.6,11.7,105.3,11.7"/>
<path class="st1" d="M112.4,11.5V0.7h7.2v1.2h-5.4v3.4h4.5v1.1h-4.5v3.9h5.8v1.2H112.4z"/>
</svg>
